<svg width="400" height="400" viewBox="0 0 400 400" fill="none" xmlns="http://www.w3.org/2000/svg">
  <rect width="400" height="400" fill="url(#heroGradient)" rx="30"/>
  
  <!-- Escenario -->
  <rect x="50" y="280" width="300" height="80" fill="white" opacity="0.3" rx="15"/>
  <rect x="170" y="250" width="60" height="30" fill="white" opacity="0.5" rx="5"/>
  
  <!-- Artista en el escenario -->
  <circle cx="200" cy="240" r="15" fill="white"/>
  <rect x="190" y="255" width="20" height="25" fill="white" rx="3"/>
  
  <!-- Audiencia -->
  <circle cx="120" cy="320" r="8" fill="white" opacity="0.8"/>
  <circle cx="140" cy="325" r="8" fill="white" opacity="0.8"/>
  <circle cx="160" cy="318" r="8" fill="white" opacity="0.8"/>
  <circle cx="180" cy="322" r="8" fill="white" opacity="0.8"/>
  <circle cx="220" cy="322" r="8" fill="white" opacity="0.8"/>
  <circle cx="240" cy="318" r="8" fill="white" opacity="0.8"/>
  <circle cx="260" cy="325" r="8" fill="white" opacity="0.8"/>
  <circle cx="280" cy="320" r="8" fill="white" opacity="0.8"/>
  
  <!-- Conexiones/interacciones -->
  <path d="M120 310 Q200 280 280 310" stroke="white" stroke-width="2" fill="none" opacity="0.6" stroke-dasharray="5,5"/>
  <path d="M140 315 Q200 285 260 315" stroke="white" stroke-width="2" fill="none" opacity="0.6" stroke-dasharray="5,5"/>
  
  <!-- Elementos musicales -->
  <circle cx="100" cy="120" r="30" fill="white" opacity="0.2"/>
  <path d="M85 120 L95 110 L105 120 L115 110" stroke="white" stroke-width="3" fill="none" stroke-linecap="round"/>
  
  <circle cx="300" cy="150" r="25" fill="white" opacity="0.2"/>
  <path d="M290 140 L300 150 L310 140 M290 160 L300 150 L310 160" stroke="white" stroke-width="3" fill="none" stroke-linecap="round"/>
  
  <!-- Logo de donación/corazón -->
  <circle cx="200" cy="100" r="40" fill="white" opacity="0.3"/>
  <path d="M185 95 C185 85, 200 85, 200 95 C200 85, 215 85, 215 95 C215 110, 200 120, 200 120 C200 120, 185 110, 185 95" fill="white"/>
  
  <defs>
    <linearGradient id="heroGradient" x1="0%" y1="0%" x2="100%" y2="100%">
      <stop offset="0%" style="stop-color:#ff6b6b;stop-opacity:1" />
      <stop offset="50%" style="stop-color:#4ecdc4;stop-opacity:1" />
      <stop offset="100%" style="stop-color:#45b7d1;stop-opacity:1" />
    </linearGradient>
  </defs>
</svg>
